<?xml version="1.0" encoding="UTF-8"?>
<svg width="178px" height="50px" viewBox="0 0 178 50" version="1.1" xmlns="http://www.w3.org/2000/svg" xmlns:xlink="http://www.w3.org/1999/xlink">
    <!-- Generator: Sketch 59.1 (86144) - https://sketch.com -->
    <title>logo</title>
    <desc>Created with Sketch.</desc>
    <g id="Page-1" stroke="none" stroke-width="1" fill="none" fill-rule="evenodd">
        <g id="logo" fill-rule="nonzero">
            <g id="Group">
                <g transform="translate(1.000000, 38.000000)" fill="#6C7B7C">
                    <path d="M6.9,4.9 C6.9,6.3 6.5,7.3 5.8,8 C5.1,8.7 4,9.1 2.6,9.1 L0.3,9.1 L0.3,0.8 L2.8,0.8 C4.1,0.8 5.1,1.2 5.8,1.9 C6.6,2.6 6.9,3.6 6.9,4.9 Z M5.9,5 C5.9,3.9 5.6,3.1 5.1,2.6 C4.6,2.1 3.8,1.8 2.7,1.8 L1.3,1.8 L1.3,8.4 L2.5,8.4 C3.6,8.4 4.5,8.1 5.1,7.6 C5.6,6.9 5.9,6.1 5.9,5 Z" id="Shape"></path>
                    <path d="M8.6,1.3 C8.6,1.1 8.7,0.9 8.8,0.8 C8.9,0.7 9,0.7 9.2,0.7 C9.3,0.7 9.5,0.8 9.6,0.9 C9.7,1 9.8,1.2 9.8,1.4 C9.8,1.6 9.7,1.8 9.6,1.9 C9.5,2 9.4,2.1 9.2,2.1 C9,2.1 8.9,2 8.8,1.9 C8.6,1.6 8.6,1.5 8.6,1.3 Z M9.6,9.1 L8.7,9.1 L8.7,2.9 L9.6,2.9 L9.6,9.1 Z" id="Shape"></path>
                    <path d="M14.2,9.3 C13.3,9.3 12.6,9 12,8.5 C11.5,7.9 11.2,7.2 11.2,6.2 C11.2,5.2 11.4,4.4 11.9,3.8 C12.4,3.2 13.1,2.9 13.9,2.9 C14.7,2.9 15.3,3.2 15.7,3.7 C16.2,4.2 16.4,4.9 16.4,5.7 L16.4,6.3 L12.1,6.3 C12.1,7 12.3,7.6 12.7,8 C13,8.4 13.5,8.6 14.2,8.6 C14.9,8.6 15.5,8.5 16.2,8.2 L16.2,9 C15.9,9.1 15.6,9.2 15.3,9.3 C15,9.2 14.6,9.3 14.2,9.3 Z M13.9,3.6 C13.4,3.6 13,3.8 12.7,4.1 C12.4,4.4 12.2,4.9 12.2,5.4 L15.4,5.4 C15.4,4.8 15.3,4.4 15,4 C14.8,3.8 14.4,3.6 13.9,3.6 Z" id="Shape"></path>
                    <path d="M24,2.8 C24.8,2.8 25.4,3.1 25.9,3.6 C26.4,4.2 26.6,4.9 26.6,6 C26.6,7 26.4,7.8 25.9,8.4 C25.4,9 24.8,9.2 24,9.2 C23.6,9.2 23.2,9.1 22.9,9 C22.6,8.9 22.3,8.6 22.1,8.3 L22,8.3 L21.8,9.1 L21.1,9.1 L21.1,0.3 L22,0.3 L22,2.4 C22,2.9 22,3.3 22,3.7 L22,3.7 C22.5,3.1 23.1,2.8 24,2.8 Z M23.8,3.6 C23.2,3.6 22.7,3.8 22.4,4.2 C22.1,4.6 22,5.2 22,6.1 C22,7 22.1,7.6 22.4,8 C22.7,8.4 23.2,8.6 23.8,8.6 C24.4,8.6 24.8,8.4 25.1,8 C25.4,7.6 25.5,7 25.5,6.2 C25.5,5.4 25.4,4.8 25.1,4.4 C24.9,3.8 24.4,3.6 23.8,3.6 Z" id="Shape"></path>
                    <path d="M30.8,9.3 C29.9,9.3 29.2,9 28.6,8.5 C28.1,7.9 27.8,7.2 27.8,6.2 C27.8,5.2 28,4.4 28.5,3.8 C29,3.2 29.7,2.9 30.5,2.9 C31.3,2.9 31.9,3.2 32.3,3.7 C32.8,4.2 33,4.9 33,5.7 L33,6.3 L28.7,6.3 C28.7,7 28.9,7.6 29.3,8 C29.6,8.4 30.1,8.6 30.8,8.6 C31.5,8.6 32.1,8.5 32.8,8.2 L32.8,9 C32.5,9.1 32.2,9.2 31.9,9.3 C31.6,9.2 31.2,9.3 30.8,9.3 Z M30.6,3.6 C30.1,3.6 29.7,3.8 29.4,4.1 C29.1,4.4 28.9,4.9 28.9,5.4 L32.1,5.4 C32.1,4.8 32,4.4 31.7,4 C31.4,3.8 31,3.6 30.6,3.6 Z" id="Shape"></path>
                    <path d="M38.7,7.4 C38.7,8 38.5,8.4 38.1,8.7 C37.7,9 37.1,9.2 36.3,9.2 C35.5,9.2 34.8,9.1 34.4,8.8 L34.4,8 C34.7,8.2 35,8.3 35.4,8.4 C35.7,8.5 36.1,8.5 36.4,8.5 C36.9,8.5 37.3,8.4 37.5,8.3 C37.8,8.1 37.9,7.9 37.9,7.6 C37.9,7.4 37.8,7.2 37.6,7 C37.4,6.8 37,6.6 36.4,6.4 C35.8,6.2 35.4,6 35.2,5.8 C35,5.6 34.8,5.5 34.7,5.3 C34.6,5.1 34.5,4.9 34.5,4.6 C34.5,4.1 34.7,3.7 35.1,3.4 C35.5,3.1 36.1,3 36.8,3 C37.5,3 38.1,3.1 38.8,3.4 L38.2,4 C37.6,3.7 37,3.6 36.5,3.6 C36.1,3.6 35.7,3.7 35.5,3.8 C35.3,3.9 35.2,4.1 35.2,4.4 C35.2,4.6 35.2,4.7 35.3,4.8 C35.4,4.9 35.5,5 35.7,5.1 C35.9,5.2 36.2,5.4 36.8,5.6 C37.5,5.9 38,6.1 38.3,6.4 C38.6,6.7 38.7,7 38.7,7.4 Z" id="Path"></path>
                    <path d="M42.2,8.5 C42.4,8.5 42.5,8.5 42.7,8.5 C42.9,8.5 43,8.4 43.1,8.4 L43.1,9.1 C43,9.1 42.8,9.2 42.6,9.2 C42.4,9.2 42.2,9.2 42.1,9.2 C40.9,9.2 40.3,8.6 40.3,7.3 L40.3,3.6 L39.4,3.6 L39.4,3.1 L40.3,2.7 L40.7,1.4 L41.2,1.4 L41.2,2.8 L43,2.8 L43,3.5 L41.2,3.5 L41.2,7.2 C41.2,7.6 41.3,7.9 41.5,8.1 C41.7,8.4 41.9,8.5 42.2,8.5 Z" id="Path"></path>
                    <path d="M46.9,9.3 C46,9.3 45.3,9 44.7,8.5 C44.2,7.9 43.9,7.2 43.9,6.2 C43.9,5.2 44.1,4.4 44.6,3.8 C45.1,3.2 45.8,2.9 46.6,2.9 C47.4,2.9 48,3.2 48.4,3.7 C48.9,4.2 49.1,4.9 49.1,5.7 L49.1,6.3 L44.8,6.3 C44.8,7 45,7.6 45.4,8 C45.7,8.4 46.2,8.6 46.9,8.6 C47.6,8.6 48.2,8.5 48.9,8.2 L48.9,9 C48.6,9.1 48.3,9.2 48,9.3 C47.7,9.2 47.4,9.3 46.9,9.3 Z M46.7,3.6 C46.2,3.6 45.8,3.8 45.5,4.1 C45.2,4.4 45,4.9 45,5.4 L48.2,5.4 C48.2,4.8 48.1,4.4 47.8,4 C47.5,3.8 47.2,3.6 46.7,3.6 Z" id="Shape"></path>
                    <path d="M55.1,9.1 L55.1,5.1 C55.1,4.6 55,4.2 54.8,4 C54.6,3.8 54.2,3.6 53.7,3.6 C53.1,3.6 52.6,3.8 52.3,4.1 C52,4.5 51.8,5 51.8,5.8 L51.8,9.1 L50.9,9.1 L50.9,2.9 L51.7,2.9 L51.9,3.7 L51.9,3.7 C52.1,3.4 52.4,3.2 52.7,3 C53,2.8 53.4,2.7 53.9,2.7 C54.6,2.7 55.2,2.9 55.6,3.2 C56,3.6 56.2,4.1 56.2,4.9 L56.2,8.9 L55.1,8.9 L55.1,9.1 Z" id="Path"></path>
                    <path d="M67.7,4.9 C67.7,6.3 67.3,7.3 66.6,8 C65.9,8.7 64.8,9.1 63.4,9.1 L61.1,9.1 L61.1,0.8 L63.6,0.8 C64.9,0.8 65.9,1.2 66.6,1.9 C67.3,2.6 67.7,3.6 67.7,4.9 Z M66.7,5 C66.7,3.9 66.4,3.1 65.9,2.6 C65.4,2.1 64.6,1.8 63.5,1.8 L62.1,1.8 L62.1,8.4 L63.3,8.4 C64.4,8.4 65.3,8.1 65.9,7.6 C66.4,6.9 66.7,6.1 66.7,5 Z" id="Shape"></path>
                    <path d="M73.2,9.1 L73,8.3 L73,8.3 C72.7,8.7 72.4,9 72.1,9.1 C71.8,9.2 71.4,9.3 70.9,9.3 C70.3,9.3 69.8,9.1 69.5,8.8 C69.2,8.5 69,8 69,7.4 C69,6.1 70,5.5 72,5.4 L73.1,5.4 L73.1,5 C73.1,4.5 73,4.2 72.8,3.9 C72.6,3.7 72.3,3.6 71.8,3.6 C71.3,3.6 70.7,3.8 70,4.1 L69.7,3.4 C70,3.2 70.3,3.1 70.7,3 C71.1,2.9 71.4,2.9 71.8,2.9 C72.5,2.9 73.1,3.1 73.4,3.4 C73.8,3.7 73.9,4.3 73.9,5 L73.9,9.2 L73.2,9.2 L73.2,9.1 Z M71.1,8.5 C71.7,8.5 72.1,8.3 72.5,8 C72.8,7.7 73,7.2 73,6.7 L73,6.1 L72.1,6.1 C71.4,6.1 70.8,6.2 70.5,6.4 C70.2,6.6 70,6.9 70,7.4 C70,7.7 70.1,8 70.3,8.2 C70.4,8.4 70.7,8.5 71.1,8.5 Z" id="Shape"></path>
                    <path d="M77.9,8.5 C78.1,8.5 78.2,8.5 78.4,8.5 C78.6,8.5 78.7,8.4 78.8,8.4 L78.8,9.1 C78.7,9.1 78.5,9.2 78.3,9.2 C78.1,9.2 77.9,9.2 77.8,9.2 C76.6,9.2 76,8.6 76,7.3 L76,3.6 L75,3.6 L75,3.1 L75.9,2.7 L76.3,1.4 L76.8,1.4 L76.8,2.8 L78.6,2.8 L78.6,3.5 L76.8,3.5 L76.8,7.2 C76.8,7.6 76.9,7.9 77.1,8.1 C77.3,8.4 77.5,8.5 77.9,8.5 Z" id="Path"></path>
                    <path d="M79.9,1.3 C79.9,1.1 80,0.9 80.1,0.8 C80.2,0.7 80.3,0.7 80.5,0.7 C80.6,0.7 80.8,0.8 80.9,0.9 C81,1 81.1,1.2 81.1,1.4 C81.1,1.6 81,1.8 80.9,1.9 C80.8,2 80.7,2.1 80.5,2.1 C80.3,2.1 80.2,2 80.1,1.9 C79.9,1.6 79.9,1.5 79.9,1.3 Z M80.9,9.1 L80,9.1 L80,2.9 L80.9,2.9 L80.9,9.1 Z" id="Shape"></path>
                    <path d="M87.1,9.1 L87.1,5.1 C87.1,4.6 87,4.2 86.8,4 C86.6,3.8 86.2,3.6 85.7,3.6 C85.1,3.6 84.6,3.8 84.3,4.1 C84,4.5 83.8,5 83.8,5.8 L83.8,9.1 L82.9,9.1 L82.9,2.9 L83.7,2.9 L83.9,3.7 L83.9,3.7 C84.1,3.4 84.4,3.2 84.7,3 C85,2.8 85.4,2.7 85.9,2.7 C86.6,2.7 87.2,2.9 87.6,3.2 C88,3.6 88.2,4.1 88.2,4.9 L88.2,8.9 L87.1,8.9 L87.1,9.1 Z" id="Path"></path>
                    <path d="M95.1,2.9 L95.1,3.5 L94,3.6 C94.1,3.7 94.2,3.9 94.3,4.1 C94.4,4.3 94.4,4.6 94.4,4.8 C94.4,5.4 94.2,5.9 93.8,6.3 C93.4,6.7 92.8,6.8 92.1,6.8 C91.9,6.8 91.7,6.8 91.6,6.8 C91.2,7 91,7.3 91,7.6 C91,7.8 91.1,7.9 91.2,8 C91.3,8.1 91.6,8.1 91.9,8.1 L93,8.1 C93.7,8.1 94.2,8.2 94.5,8.5 C94.9,8.8 95,9.2 95,9.7 C95,10.4 94.7,10.9 94.2,11.3 C93.6,11.7 92.8,11.8 91.8,11.8 C91,11.8 90.4,11.6 89.9,11.3 C89.5,11 89.2,10.6 89.2,10 C89.2,9.6 89.3,9.3 89.6,9 C89.8,8.7 90.2,8.5 90.6,8.4 C90.4,8.3 90.3,8.2 90.2,8.1 C90.1,8.2 90,8 90,7.8 C90,7.6 90.1,7.4 90.2,7.2 C90.3,7 90.5,6.9 90.8,6.7 C90.5,6.6 90.2,6.3 90,6 C89.8,5.7 89.7,5.3 89.7,4.9 C89.7,4.2 89.9,3.7 90.3,3.3 C90.7,2.9 91.3,2.7 92,2.7 C92.3,2.7 92.6,2.7 92.9,2.8 L95.1,2.8 L95.1,2.9 Z M90.1,10.2 C90.1,10.5 90.2,10.8 90.5,11 C90.8,11.2 91.2,11.3 91.7,11.3 C92.5,11.3 93.1,11.2 93.5,10.9 C93.9,10.7 94.1,10.3 94.1,9.9 C94.1,9.6 94,9.3 93.8,9.2 C93.6,9.1 93.2,9 92.6,9 L91.5,9 C91.1,9 90.7,9.1 90.5,9.3 C90.2,9.5 90.1,9.8 90.1,10.2 Z M90.6,4.9 C90.6,5.3 90.7,5.7 91,5.9 C91.2,6.1 91.6,6.2 92,6.2 C92.9,6.2 93.4,5.8 93.4,4.9 C93.4,4 92.9,3.5 92,3.5 C91.6,3.5 91.2,3.6 91,3.9 C90.7,4.1 90.6,4.5 90.6,4.9 Z" id="Shape"></path>
                    <path d="M104.2,6.9 C104.2,7.6 103.9,8.2 103.4,8.6 C102.9,9 102.2,9.2 101.2,9.2 C100.2,9.2 99.5,9.1 98.9,8.8 L98.9,7.9 C99.2,8 99.6,8.2 100,8.2 C100.4,8.3 100.8,8.3 101.2,8.3 C101.8,8.3 102.3,8.2 102.6,7.9 C102.9,7.7 103.1,7.3 103.1,6.9 C103.1,6.6 103,6.4 102.9,6.2 C102.8,6 102.6,5.8 102.3,5.7 C102,5.5 101.6,5.4 101.1,5.2 C100.3,4.9 99.8,4.6 99.4,4.2 C99.1,3.8 98.9,3.3 98.9,2.7 C98.9,2.1 99.1,1.6 99.6,1.2 C100.1,0.8 100.7,0.6 101.5,0.6 C102.3,0.6 103.1,0.8 103.8,1.1 L103.5,1.9 C102.8,1.6 102.2,1.5 101.5,1.5 C101,1.5 100.6,1.6 100.3,1.8 C100,2 99.9,2.3 99.9,2.7 C99.9,3 100,3.2 100.1,3.4 C100.2,3.6 100.4,3.8 100.6,3.9 C100.9,4.1 101.2,4.2 101.8,4.4 C102.7,4.7 103.3,5 103.6,5.4 C104,5.9 104.2,6.4 104.2,6.9 Z" id="Path"></path>
                    <path d="M108.3,9.3 C107.4,9.3 106.7,9 106.1,8.5 C105.6,7.9 105.3,7.2 105.3,6.2 C105.3,5.2 105.5,4.4 106,3.8 C106.5,3.2 107.2,2.9 108,2.9 C108.8,2.9 109.4,3.2 109.8,3.7 C110.3,4.2 110.5,4.9 110.5,5.7 L110.5,6.3 L106.2,6.3 C106.2,7 106.4,7.6 106.8,8 C107.1,8.4 107.6,8.6 108.3,8.6 C109,8.6 109.6,8.5 110.3,8.2 L110.3,9 C110,9.1 109.7,9.2 109.4,9.3 C109.1,9.2 108.8,9.3 108.3,9.3 Z M108.1,3.6 C107.6,3.6 107.2,3.8 106.9,4.1 C106.6,4.4 106.4,4.9 106.4,5.4 L109.6,5.4 C109.6,4.8 109.5,4.4 109.2,4 C108.9,3.8 108.6,3.6 108.1,3.6 Z" id="Shape"></path>
                    <path d="M112.1,1.3 C112.1,1.1 112.2,0.9 112.3,0.8 C112.4,0.7 112.5,0.7 112.7,0.7 C112.8,0.7 113,0.8 113.1,0.9 C113.2,1 113.3,1.2 113.3,1.4 C113.3,1.6 113.2,1.8 113.1,1.9 C113,2 112.9,2.1 112.7,2.1 C112.5,2.1 112.4,2 112.3,1.9 C112.2,1.6 112.1,1.5 112.1,1.3 Z M113.2,9.1 L112.3,9.1 L112.3,2.9 L113.2,2.9 L113.2,9.1 Z" id="Shape"></path>
                    <path d="M117.2,8.5 C117.4,8.5 117.5,8.5 117.7,8.5 C117.9,8.5 118,8.4 118.1,8.4 L118.1,9.1 C118,9.1 117.8,9.2 117.6,9.2 C117.4,9.2 117.2,9.2 117.1,9.2 C115.9,9.2 115.3,8.6 115.3,7.3 L115.3,3.6 L114.4,3.6 L114.4,3.1 L115.3,2.7 L115.7,1.4 L116.2,1.4 L116.2,2.8 L118,2.8 L118,3.5 L116.2,3.5 L116.2,7.2 C116.2,7.6 116.3,7.9 116.5,8.1 C116.6,8.4 116.8,8.5 117.2,8.5 Z" id="Path"></path>
                    <path d="M121.9,9.3 C121,9.3 120.3,9 119.7,8.5 C119.2,7.9 118.9,7.2 118.9,6.2 C118.9,5.2 119.1,4.4 119.6,3.8 C120.1,3.2 120.8,2.9 121.6,2.9 C122.4,2.9 123,3.2 123.4,3.7 C123.9,4.2 124.1,4.9 124.1,5.7 L124.1,6.3 L119.8,6.3 C119.8,7 120,7.6 120.4,8 C120.7,8.4 121.2,8.6 121.9,8.6 C122.6,8.6 123.2,8.5 123.9,8.2 L123.9,9 C123.6,9.1 123.3,9.2 123,9.3 C122.6,9.2 122.3,9.3 121.9,9.3 Z M121.6,3.6 C121.1,3.6 120.7,3.8 120.4,4.1 C120.1,4.4 119.9,4.9 119.9,5.4 L123.1,5.4 C123.1,4.8 123,4.4 122.7,4 C122.5,3.8 122.1,3.6 121.6,3.6 Z" id="Shape"></path>
                    <path d="M130,9.1 L130,5.1 C130,4.6 129.9,4.2 129.7,4 C129.5,3.8 129.1,3.6 128.6,3.6 C128,3.6 127.5,3.8 127.2,4.1 C126.9,4.5 126.7,5 126.7,5.8 L126.7,9.1 L125.8,9.1 L125.8,2.9 L126.6,2.9 L126.8,3.7 L126.8,3.7 C127,3.4 127.3,3.2 127.6,3 C127.9,2.8 128.3,2.7 128.8,2.7 C129.5,2.7 130.1,2.9 130.5,3.2 C130.9,3.6 131.1,4.1 131.1,4.9 L131.1,8.9 L130,8.9 L130,9.1 Z" id="Path"></path>
                    <path d="M138.7,3.7 L137.1,3.7 L137.1,9.2 L136.2,9.2 L136.2,3.7 L135,3.7 L135,3.3 L136.1,3 L136.1,2.7 C136.1,1.2 136.8,0.4 138.1,0.4 C138.4,0.4 138.8,0.5 139.3,0.6 L139.1,1.4 C138.7,1.3 138.4,1.2 138.2,1.2 C137.8,1.2 137.6,1.3 137.4,1.6 C137.2,1.8 137.1,2.2 137.1,2.7 L137.1,3.1 L138.7,3.1 L138.7,3.7 L138.7,3.7 Z" id="Path"></path>
                    <path d="M140.7,2.9 L140.7,6.9 C140.7,7.4 140.8,7.8 141,8 C141.2,8.2 141.6,8.4 142.1,8.4 C142.7,8.4 143.2,8.2 143.5,7.9 C143.8,7.5 143.9,7 143.9,6.2 L143.9,2.9 L144.8,2.9 L144.8,9.1 L144,9.1 L143.9,8.3 L144,8.3 C143.8,8.6 143.5,8.8 143.2,9 C142.9,9.2 142.5,9.2 142,9.2 C141.2,9.2 140.7,9 140.3,8.7 C139.9,8.3 139.7,7.8 139.7,7 L139.7,2.9 L140.7,2.9 L140.7,2.9 Z M140.7,1.3 C140.7,1.1 140.7,1 140.8,0.9 C140.9,0.8 141,0.8 141.2,0.8 C141.3,0.8 141.5,0.8 141.6,0.9 C141.7,1 141.8,1.1 141.8,1.3 C141.8,1.5 141.7,1.6 141.6,1.7 C141.5,1.8 141.4,1.8 141.2,1.8 C141.1,1.8 140.9,1.8 140.8,1.7 C140.8,1.6 140.7,1.4 140.7,1.3 Z M142.9,1.3 C142.9,1.1 142.9,1 143,0.9 C143.1,0.8 143.2,0.8 143.4,0.8 C143.5,0.8 143.7,0.8 143.8,0.9 C143.9,1 144,1.1 144,1.3 C144,1.5 143.9,1.6 143.8,1.7 C143.7,1.8 143.6,1.8 143.4,1.8 C143.3,1.8 143.1,1.8 143,1.7 C142.9,1.6 142.9,1.4 142.9,1.3 Z" id="Shape"></path>
                    <path d="M149.7,2.8 C150,2.8 150.2,2.8 150.4,2.9 L150.3,3.8 C150,3.7 149.8,3.7 149.6,3.7 C149.1,3.7 148.7,3.9 148.3,4.3 C147.9,4.7 147.8,5.2 147.8,5.8 L147.8,9.1 L146.9,9.1 L146.9,2.9 L147.7,2.9 L147.8,4 L147.8,4 C148,3.6 148.3,3.3 148.6,3.1 C149,2.9 149.4,2.8 149.7,2.8 Z" id="Path"></path>
                    <path d="M161.4,4.9 C161.4,6.3 161,7.3 160.3,8 C159.6,8.7 158.5,9.1 157.1,9.1 L154.8,9.1 L154.8,0.8 L157.3,0.8 C158.6,0.8 159.6,1.2 160.3,1.9 C161.1,2.6 161.4,3.6 161.4,4.9 Z M160.4,5 C160.4,3.9 160.1,3.1 159.6,2.6 C159.1,2.1 158.3,1.8 157.2,1.8 L155.8,1.8 L155.8,8.4 L157,8.4 C158.1,8.4 159,8.1 159.6,7.6 C160.1,6.9 160.4,6.1 160.4,5 Z" id="Shape"></path>
                    <path d="M163,1.3 C163,1.1 163.1,0.9 163.2,0.8 C163.3,0.7 163.4,0.7 163.6,0.7 C163.7,0.7 163.9,0.8 164,0.9 C164.1,1 164.2,1.2 164.2,1.4 C164.2,1.6 164.1,1.8 164,1.9 C163.9,2 163.8,2.1 163.6,2.1 C163.4,2.1 163.3,2 163.2,1.9 C163.1,1.6 163,1.5 163,1.3 Z M164.1,9.1 L163.2,9.1 L163.2,2.9 L164.1,2.9 L164.1,9.1 Z" id="Shape"></path>
                    <path d="M168.5,9.3 C167.6,9.3 166.9,9 166.4,8.5 C165.9,7.9 165.7,7.2 165.7,6.2 C165.7,5.2 165.9,4.4 166.4,3.8 C166.9,3.2 167.6,3 168.5,3 C168.8,3 169.1,3 169.4,3.1 C169.7,3.2 169.9,3.2 170.1,3.3 L169.8,4.1 C169.6,4 169.4,3.9 169.1,3.9 C168.9,3.8 168.6,3.8 168.4,3.8 C167.1,3.8 166.5,4.6 166.5,6.2 C166.5,7 166.7,7.5 167,8 C167.3,8.4 167.8,8.6 168.4,8.6 C168.9,8.6 169.4,8.5 170,8.3 L170,9.1 C169.7,9.1 169.2,9.3 168.5,9.3 Z" id="Path"></path>
                    <path d="M175.8,9.1 L175.8,5.1 C175.8,4.6 175.7,4.2 175.5,4 C175.3,3.8 174.9,3.6 174.4,3.6 C173.7,3.6 173.3,3.8 173,4.1 C172.7,4.5 172.6,5 172.6,5.8 L172.6,9 L171.7,9 L171.7,0.2 L172.6,0.2 L172.6,3 C172.6,3.3 172.6,3.6 172.6,3.8 L172.7,3.8 C172.9,3.5 173.1,3.3 173.5,3.1 C173.8,2.9 174.2,2.8 174.7,2.8 C175.5,2.8 176,3 176.4,3.3 C176.8,3.7 177,4.2 177,5 L177,9 L175.8,9 L175.8,9.1 Z" id="Path"></path>
                </g>
                <g transform="translate(96.000000, 14.000000)" fill="#6C7B7C" id="Path">
                    <path d="M10.4,21 C3.6,21 0.5,16.1 0.5,10.8 C0.5,5.5 4.1,0.5 10.3,0.5 C12.3,0.5 15.4,1 15.4,3.8 C15.4,4.8 15,5.6 14,5.6 C12.3,5.6 12.3,4.9 10.8,4.9 C7.2,4.9 5.8,8.1 5.8,10.8 C5.8,13.8 7.7,16.4 11,16.4 C12.3,16.4 12.6,15.8 13.8,15.8 C14.9,15.8 15.4,16.8 15.4,17.6 C15.5,20.8 11.8,21 10.4,21 Z"></path>
                    <path d="M33.7,19.7 C33,20.4 32.4,20.4 31.7,20.4 C30.8,20.4 29.2,20.1 29.2,18.4 L29.2,14.6 C29.2,12.2 26.4,12.3 25.5,12.3 C24.4,12.3 21.8,12.5 21.8,14.6 L21.8,18.4 C21.8,20.1 20,20.4 19.3,20.4 C18.4,20.4 16.9,20.2 16.9,18.8 L16.9,2.6 C16.9,1.3 18.6,1 19.3,1 C20.2,1 21.8,1.3 21.8,3 L21.8,6 C21.8,7.9 24.3,8.2 25.5,8.2 C26.7,8.2 29.2,8 29.2,5.9 L29.2,2.9 C29.2,1.2 30.8,0.9 31.7,0.9 C32.5,0.9 34.1,1.2 34.1,2.4 L34.1,18.4 C34.1,18.9 33.9,19.5 33.7,19.7 Z"></path>
                    <path d="M46.6,20.2 C45.6,20.5 43.6,20.5 41.8,20.5 C40.1,20.5 36.5,20.7 36.5,18.4 L36.5,3.7 C36.5,1.1 39.3,1 39.6,1 L45.6,1 C47.2,1 47.6,1.8 47.6,2.8 C47.6,4.2 47.3,4.6 46.2,4.9 C44.9,5.2 42.7,4.8 41.8,6.1 C41.7,6.3 41.5,6.7 41.5,6.9 C41.5,10.3 46.9,7.1 46.9,10.5 C46.9,13.6 41.4,11 41.4,14.2 C41.4,16.5 44.2,16.5 45.6,16.5 C46.9,16.5 47.5,17.2 47.5,18.3 C47.8,19 47.7,19.9 46.6,20.2 Z"></path>
                    <path d="M58.8,21 C52,21 48.9,16.1 48.9,10.8 C48.9,5.5 52.5,0.5 58.7,0.5 C60.7,0.5 63.8,1 63.8,3.8 C63.8,4.8 63.4,5.6 62.4,5.6 C60.7,5.6 60.7,4.9 59.2,4.9 C55.6,4.9 54.2,8.1 54.2,10.8 C54.2,13.8 56.1,16.4 59.4,16.4 C60.7,16.4 61,15.8 62.2,15.8 C63.3,15.8 63.8,16.8 63.8,17.6 C63.9,20.8 60.3,21 58.8,21 Z"></path>
                    <path d="M79,20.4 C78.3,20.4 77.5,20.4 76.6,20 C75.9,19.6 75.2,18.5 74.6,17.8 C74.4,17.5 72.4,14 71.3,14 C70.1,14 70.3,15.3 70.2,15.7 C70,16.7 70.3,18.3 70,19.1 C69.6,20.1 68.8,20.4 67.6,20.4 C66.9,20.4 65.2,20.3 65.2,18.6 L65.2,2.9 C65.2,1.4 66.9,1.1 67.6,1.1 C69.9,1.1 70.1,2.5 70.2,4.3 C70.3,5.8 70.1,7.3 71.4,7.3 C72.4,7.3 74.2,4.4 74.7,3.6 C75.1,3 75.8,2.1 76.5,1.5 C77.2,1 78.1,1 78.9,1 C79.6,1 81.1,1 81.1,2 C81.1,3.7 75.8,8.3 75.8,10.4 C75.8,12.1 81.4,17.9 81.4,19.3 C81.4,20.5 79.4,20.4 79,20.4 Z"></path>
                </g>
                <g fill="#FFD901">
                    <g transform="translate(0.000000, 14.000000)">
                        <path d="M5.4,20.4 C4.5,20.4 0.5,20.3 0.5,18 L0.5,3.4 C0.5,1.1 4.2,1 5.4,1 C11.9,1 17.4,3.1 17.4,10.7 C17.5,17.2 14.1,20.4 5.4,20.4 Z M7.6,5.4 C5.8,5.4 5.5,7.9 5.5,11 C5.5,13.4 5.5,16 7.6,16 C10.7,16 12.2,13.5 12.2,10.7 C12.2,8.4 11.4,5.4 7.6,5.4 Z" id="Shape"></path>
                        <path d="M37.8,8.4 C37.8,5.9 36.7,5.5 35.5,5.3 C34.4,5.1 33.4,5 33.4,3.2 C33.4,1.4 34.9,1.1 35.6,1.1 L44.8,1.1 C46.1,1.1 47,1.8 47,3.2 C47,5 45.9,5.1 44.9,5.3 C43.8,5.5 42.6,5.9 42.6,8.4 L42.6,18.4 C42.6,20.1 40.9,20.5 40.1,20.5 C39.3,20.5 37.7,20.1 37.7,18.4 L37.7,8.4 L37.8,8.4 Z" id="Path"></path>
                        <path d="M50.8,20.4 C50.1,20.4 48.4,20.2 48.4,18.6 L48.4,2.9 C48.4,1.6 50.1,1.1 50.8,1.1 C51.6,1.1 53.3,1.4 53.3,3.1 L53.3,18.5 C53.3,19.9 51.8,20.4 50.8,20.4 Z" id="Path"></path>
                        <path d="M70.8,20.4 C70.1,20.4 69.1,20.4 68.5,20 C67.4,19.4 67,18.6 66.5,17.7 L64.6,14.6 C64.4,14.2 62.7,10.8 61.6,10.8 C60.5,10.8 60.4,12.7 60.4,13.1 L60.4,18.7 C60.4,20.1 59,20.5 58,20.5 C56.8,20.5 55.6,19.9 55.6,18.7 L55.6,3.4 C55.6,2.9 55.9,2 56.3,1.7 C57.1,1.1 57.8,1 58.5,1 C59,1 60.1,1 60.8,1.4 C62,2.1 62.7,3.6 63.3,4.6 C64.2,6.1 66.3,10.5 67.6,10.5 C68.6,10.5 68.7,9.2 68.7,8.6 L68.7,3.1 C68.7,1.6 70.1,1.1 71.1,1.1 C72.8,1.1 73.5,2 73.5,3.4 L73.5,18.3 C73.7,20.3 72,20.4 70.8,20.4 Z" id="Path"></path>
                        <path d="M93.9,17.7 C92,20 89,21 86,21 C80.5,21 75.6,18 75.6,10.8 C75.6,3.9 80.5,0.5 86.3,0.5 C92.1,0.5 93.9,2.9 93.9,4.4 C93.9,5.8 92.3,6.4 91,6.4 C89.1,6.4 88.6,4.8 86,4.8 C82.3,4.8 80.7,8 80.7,10.9 C80.7,13.8 82.5,17.2 86.2,17.2 C86.8,17.2 90.1,16.9 90.1,14.7 C90.1,12.4 85.9,14.2 85.9,11.4 C85.9,9.7 89.6,9.6 90.6,9.6 C93.1,9.6 95.9,9.7 95.9,11.9 C95.9,13.3 95.2,16.1 93.9,17.7 Z" id="Path"></path>
                    </g>
                    <path d="M32.5,23.9 C31.7,21.7 29.9,16.6 29.9,16.6 C29.3,15 27.3,15 26.2,15 C25.3,15 24,14.9 23.5,15.4 C22.3,16.5 22.2,17.4 20.8,21.4 L19.4,25.5 C18.4,28.3 16.8,32.7 16.8,33 C16.8,34.5 18.3,34.4 19.1,34.4 C23.7,34.4 20,30.9 26.3,30.9 C32.2,30.9 29.1,34.4 33.5,34.4 C34.2,34.4 35.7,34.4 35.7,33 C35.6,31.7 32.6,24.4 32.5,23.9 Z M28.6,25.5 L29.1,28.6 L26.3,27.1 L23.5,28.6 L24,25.5 L21.7,23.3 L24.8,22.8 L26.2,20 L27.6,22.8 L30.7,23.3 L28.6,25.5 Z" id="Shape"></path>
                    <g transform="translate(1.000000, 0.000000)">
                        <path d="M5.1,13.2 C1.8,13.2 0.3,11.2 0.3,8.9 C0.3,6.6 1.8,4.6 5.1,4.6 C8.4,4.6 9.9,6.6 9.9,8.9 C9.9,11.2 8.5,13.2 5.1,13.2 Z M5.1,6.7 C3.9,6.7 3.3,7.6 3.3,8.9 C3.3,10.2 3.9,11.1 5.1,11.1 C6.3,11.1 6.9,10.2 6.9,8.9 C6.9,7.6 6.3,6.7 5.1,6.7 Z" id="Shape"></path>
                        <path d="M17.9,12.9 C16.9,12.9 16.6,12.3 16.6,11.7 L16.6,8.6 C16.6,7.6 16.1,6.9 15.3,6.9 C13.9,6.9 13.6,8.3 13.6,9 L13.6,11.7 C13.6,12.5 12.9,12.9 12.3,12.9 C11.7,12.9 11,12.6 11,11.8 L11,6.1 C11,5.2 11.9,4.9 12.4,4.9 C13,4.9 13.5,5.1 14.2,5.1 C14.7,5.1 15.5,4.6 16.6,4.6 C19.2,4.6 19.5,6.4 19.5,8.1 L19.5,11.6 C19.3,12.4 19,12.9 17.9,12.9 Z" id="Path"></path>
                        <path d="M21.7,12.9 C21.1,12.9 20.4,12.4 20.4,11.8 L20.4,1.7 C20.4,0.9 21.2,0.7 21.7,0.7 C22.6,0.7 23,1.2 23,1.9 L23,11.7 C23,12.5 22.3,12.9 21.7,12.9 Z" id="Path"></path>
                        <path d="M25.6,12.9 C24.7,12.9 24.3,12.4 24.3,11.7 L24.3,6.3 C24.3,5.7 24.6,4.9 25.6,4.9 C26.4,4.9 26.9,5.4 26.9,6.3 L26.9,11.6 C26.8,12.5 26.3,12.9 25.6,12.9 Z M25.6,3.1 C24.8,3.1 24.4,2.4 24.4,1.9 C24.4,1.2 24.8,0.7 25.6,0.7 C26.3,0.7 26.8,1.3 26.8,1.9 C26.8,2.4 26.3,3.1 25.6,3.1 Z" id="Shape"></path>
                        <path d="M35,12.9 C34,12.9 33.7,12.3 33.7,11.7 L33.7,8.6 C33.7,7.6 33.2,6.9 32.4,6.9 C31,6.9 30.7,8.3 30.7,9 L30.7,11.7 C30.7,12.5 30,12.9 29.4,12.9 C28.8,12.9 28.1,12.6 28.1,11.8 L28.1,6.1 C28,5.3 28.9,5 29.4,5 C30,5 30.5,5.2 31.2,5.2 C31.7,5.2 32.5,4.7 33.6,4.7 C36.2,4.7 36.5,6.5 36.5,8.2 L36.5,11.7 C36.4,12.4 36.1,12.9 35,12.9 Z" id="Path"></path>
                        <path d="M44.4,9.6 C43.5,9.6 42.1,9.5 41.9,9.5 C41.7,9.5 40.1,9.4 40.1,10.5 C40.1,11.4 41.1,11.8 41.8,11.8 C43,11.8 43.5,10.8 44.5,10.8 C45,10.8 45.4,11.1 45.4,11.5 C45.4,13.1 43,13.3 41.9,13.3 C39.3,13.3 37.4,11.9 37.4,9 C37.4,6.4 39.2,4.6 41.8,4.6 C44.8,4.6 46.2,6.8 46.2,8.2 C46.1,9.3 45,9.6 44.4,9.6 Z M41.7,6.2 C40.9,6.2 40.4,6.7 40.4,7.3 C40.4,8.1 41.3,8.1 41.8,8.1 C42.2,8.1 43.2,8 43.2,7.2 C43.1,6.7 42.4,6.2 41.7,6.2 Z" id="Shape"></path>
                    </g>
                </g>
            </g>
        </g>
    </g>
</svg>