<?xml version="1.0" encoding="UTF-8"?>
<svg width="127px" height="25px" viewBox="0 0 127 25" version="1.1" xmlns="http://www.w3.org/2000/svg" xmlns:xlink="http://www.w3.org/1999/xlink">
    <!-- Generator: Sketch 59.1 (86144) - https://sketch.com -->
    <title>logo_f</title>
    <desc>Created with Sketch.</desc>
    <g id="Page-1" stroke="none" stroke-width="1" fill="none" fill-rule="evenodd">
        <g id="logo_f" fill="#6C7B7C" fill-rule="nonzero">
            <g id="Group">
                <g transform="translate(68.000000, 10.000000)" id="Path">
                    <path d="M8,14.8 C3.2,14.8 0.9,11.3 0.9,7.5 C0.9,3.7 3.5,0.2 7.9,0.2 C9.3,0.2 11.6,0.6 11.6,2.6 C11.6,3.3 11.3,3.9 10.6,3.9 C9.4,3.9 9.4,3.4 8.3,3.4 C5.7,3.4 4.8,5.7 4.8,7.6 C4.8,9.7 6.1,11.6 8.5,11.6 C9.4,11.6 9.7,11.2 10.5,11.2 C11.3,11.2 11.6,11.9 11.6,12.5 C11.7,14.6 9.1,14.8 8,14.8 Z"></path>
                    <path d="M24.7,13.9 C24.2,14.4 23.8,14.4 23.3,14.4 C22.6,14.4 21.5,14.2 21.5,12.9 L21.5,10.2 C21.5,8.5 19.5,8.6 18.9,8.6 C18.1,8.6 16.3,8.7 16.3,10.2 L16.3,13 C16.3,14.2 15,14.4 14.5,14.4 C13.9,14.4 12.8,14.3 12.8,13.3 L12.8,1.7 C12.8,0.8 14,0.6 14.5,0.6 C15.2,0.6 16.3,0.8 16.3,2 L16.3,4.2 C16.3,5.6 18.1,5.8 18.9,5.8 C19.8,5.8 21.5,5.7 21.5,4.2 L21.5,2 C21.5,0.8 22.7,0.5 23.3,0.5 C23.8,0.5 25,0.7 25,1.6 L25,13.1 C25,13.3 24.8,13.8 24.7,13.9 Z"></path>
                    <path d="M34,14.2 C33.3,14.4 31.8,14.4 30.6,14.4 C29.4,14.4 26.8,14.5 26.8,12.9 L26.8,2.4 C26.8,0.5 28.8,0.5 29,0.5 L33.3,0.5 C34.4,0.5 34.8,1.1 34.8,1.8 C34.8,2.8 34.6,3.1 33.8,3.3 C32.9,3.5 31.3,3.2 30.7,4.1 C30.6,4.2 30.5,4.5 30.5,4.7 C30.5,7.1 34.4,4.8 34.4,7.3 C34.4,9.5 30.4,7.6 30.4,10 C30.4,11.7 32.4,11.6 33.4,11.6 C34.3,11.6 34.8,12.1 34.8,12.9 C34.7,13.4 34.7,14 34,14.2 Z"></path>
                    <path d="M42.7,14.8 C37.9,14.8 35.6,11.3 35.6,7.5 C35.6,3.7 38.2,0.2 42.6,0.2 C44,0.2 46.3,0.6 46.3,2.6 C46.3,3.3 46,3.9 45.3,3.9 C44.1,3.9 44.1,3.4 43,3.4 C40.4,3.4 39.5,5.7 39.5,7.6 C39.5,9.7 40.8,11.6 43.2,11.6 C44.1,11.6 44.4,11.2 45.2,11.2 C46,11.2 46.3,11.9 46.3,12.5 C46.3,14.6 43.7,14.8 42.7,14.8 Z"></path>
                    <path d="M57.1,14.4 C56.6,14.4 56,14.4 55.4,14.1 C54.9,13.8 54.4,13 54,12.5 C53.8,12.3 52.4,9.8 51.7,9.8 C50.8,9.8 51,10.7 50.9,11 C50.8,11.7 50.9,12.9 50.7,13.4 C50.4,14.1 49.9,14.3 49,14.3 C48.5,14.3 47.3,14.2 47.3,13 L47.3,1.8 C47.3,0.7 48.5,0.5 49,0.5 C50.6,0.5 50.8,1.5 50.8,2.8 C50.8,3.9 50.7,5 51.7,5 C52.4,5 53.7,2.9 54.1,2.4 C54.4,2 54.9,1.3 55.4,0.9 C55.9,0.6 56.5,0.5 57.1,0.5 C57.6,0.5 58.7,0.5 58.7,1.2 C58.7,2.4 54.9,5.7 54.9,7.2 C54.9,8.4 58.9,12.6 58.9,13.6 C58.8,14.5 57.4,14.4 57.1,14.4 Z"></path>
                </g>
                <g>
                    <g transform="translate(0.000000, 10.000000)">
                        <path d="M3.8,14.4 C3.2,14.4 0.3,14.3 0.3,12.7 L0.3,2.2 C0.3,0.6 2.9,0.5 3.8,0.5 C8.4,0.5 12.4,2 12.4,7.4 C12.4,12.1 10.1,14.4 3.8,14.4 Z M5.4,3.7 C4.1,3.7 3.9,5.5 3.9,7.7 C3.9,9.4 3.9,11.3 5.4,11.3 C7.6,11.3 8.7,9.5 8.7,7.5 C8.7,5.8 8.1,3.7 5.4,3.7 Z" id="Shape"></path>
                        <path d="M27,5.8 C27,4 26.2,3.7 25.4,3.6 C24.6,3.5 23.9,3.4 23.9,2.1 C23.9,0.8 25,0.6 25.5,0.6 L32,0.6 C33,0.6 33.6,1.1 33.6,2.1 C33.6,3.4 32.8,3.5 32.1,3.6 C31.3,3.8 30.5,4 30.5,5.8 L30.5,12.9 C30.5,14.1 29.3,14.4 28.7,14.4 C28.1,14.4 27,14.1 27,12.9 L27,5.8 Z" id="Path"></path>
                        <path d="M36.3,14.4 C35.8,14.4 34.6,14.3 34.6,13.1 L34.6,1.8 C34.6,0.8 35.8,0.5 36.3,0.5 C36.9,0.5 38.1,0.7 38.1,1.9 L38.1,12.9 C38,14 37,14.4 36.3,14.4 Z" id="Path"></path>
                        <path d="M50.6,14.4 C50.1,14.4 49.4,14.4 49,14.1 C48.2,13.7 48,13.1 47.6,12.4 L46.3,10.1 C46.1,9.8 44.9,7.4 44.1,7.4 C43.3,7.4 43.3,8.8 43.3,9.1 L43.3,13.1 C43.3,14.1 42.3,14.4 41.6,14.4 C40.7,14.4 39.9,14 39.9,13.1 L39.9,2.2 C39.9,1.8 40.1,1.2 40.4,1 C41,0.6 41.4,0.5 42,0.5 C42.4,0.5 43.1,0.5 43.7,0.8 C44.5,1.3 45.1,2.4 45.5,3.1 C46.2,4.2 47.6,7.3 48.6,7.3 C49.3,7.3 49.4,6.3 49.4,5.9 L49.4,2 C49.4,0.9 50.4,0.5 51.1,0.5 C52.3,0.5 52.8,1.1 52.8,2.1 L52.8,12.8 C52.7,14.3 51.4,14.4 50.6,14.4 Z" id="Path"></path>
                        <path d="M67.1,12.4 C65.7,14 63.6,14.8 61.5,14.8 C57.5,14.8 54.1,12.6 54.1,7.5 C54.1,2.6 57.6,0.1 61.7,0.1 C65.8,0.1 67.1,1.8 67.1,2.9 C67.1,3.9 66,4.3 65,4.3 C63.6,4.3 63.3,3.1 61.5,3.1 C58.9,3.1 57.7,5.4 57.7,7.4 C57.7,9.5 59,11.9 61.6,11.9 C62,11.9 64.4,11.7 64.4,10.1 C64.4,8.4 61.4,9.8 61.4,7.7 C61.4,6.5 64,6.4 64.8,6.4 C66.6,6.4 68.6,6.5 68.6,8 C68.5,9.3 68,11.3 67.1,12.4 Z" id="Path"></path>
                    </g>
                    <path d="M23.2,16.8 C22.7,15.2 21.3,11.6 21.3,11.6 C20.9,10.4 19.5,10.5 18.7,10.5 C18.1,10.5 17.1,10.5 16.8,10.8 C15.9,11.6 15.8,12.3 14.8,15.1 L13.8,18 C13.1,20 12,23.2 12,23.4 C12,24.4 13,24.4 13.6,24.4 C16.9,24.4 14.2,21.9 18.7,21.9 C22.9,21.9 20.7,24.4 23.8,24.4 C24.3,24.4 25.4,24.4 25.4,23.4 C25.4,22.5 23.3,17.2 23.2,16.8 Z M20.4,18 L20.8,20.2 L18.8,19.2 L16.8,20.2 L17.2,18 L15.6,16.4 L17.8,16.1 L18.8,14.1 L19.8,16.1 L22,16.4 L20.4,18 Z" id="Shape"></path>
                    <g>
                        <path d="M4.4,9.2 C2,9.2 0.9,7.8 0.9,6.1 C0.9,4.5 2,3 4.3,3 C6.7,3 7.7,4.5 7.7,6.1 C7.8,7.8 6.7,9.2 4.4,9.2 Z M4.4,4.6 C3.6,4.6 3.1,5.2 3.1,6.2 C3.1,7.2 3.6,7.8 4.4,7.8 C5.2,7.8 5.7,7.2 5.7,6.2 C5.6,5.2 5.2,4.6 4.4,4.6 Z" id="Shape"></path>
                        <path d="M13.5,9 C12.8,9 12.5,8.5 12.5,8.1 L12.5,5.9 C12.5,5.2 12.1,4.7 11.5,4.7 C10.5,4.7 10.3,5.7 10.3,6.2 L10.3,8.1 C10.3,8.6 9.8,9 9.3,9 C8.9,9 8.3,8.8 8.3,8.2 L8.3,4.2 C8.3,3.6 9,3.4 9.3,3.4 C9.7,3.4 10.1,3.5 10.6,3.5 C11,3.5 11.6,3.1 12.3,3.1 C14.2,3.1 14.3,4.4 14.3,5.6 L14.3,8.1 C14.5,8.6 14.2,9 13.5,9 Z" id="Path"></path>
                        <path d="M16.2,9 C15.8,9 15.3,8.7 15.3,8.2 L15.3,1 C15.3,0.5 15.8,0.3 16.2,0.3 C16.8,0.3 17.2,0.7 17.2,1.1 L17.2,8.1 C17.1,8.7 16.6,9 16.2,9 Z" id="Path"></path>
                        <path d="M18.9,9 C18.3,9 17.9,8.6 17.9,8.1 L17.9,4.3 C17.9,3.8 18.1,3.3 18.8,3.3 C19.4,3.3 19.7,3.6 19.7,4.3 L19.7,8.1 C19.8,8.7 19.5,9 18.9,9 Z M18.9,2 C18.3,2 18,1.5 18,1.1 C18,0.6 18.3,0.2 18.9,0.2 C19.4,0.2 19.8,0.6 19.8,1.1 C19.8,1.5 19.5,2 18.9,2 Z" id="Shape"></path>
                        <path d="M25.7,9 C25,9 24.7,8.5 24.7,8.1 L24.7,5.9 C24.7,5.2 24.3,4.7 23.7,4.7 C22.7,4.7 22.5,5.7 22.5,6.2 L22.5,8.1 C22.5,8.6 22,9 21.5,9 C21.1,9 20.5,8.8 20.5,8.2 L20.5,4.2 C20.5,3.6 21.2,3.4 21.5,3.4 C21.9,3.4 22.3,3.5 22.8,3.5 C23.2,3.5 23.8,3.1 24.5,3.1 C26.4,3.1 26.5,4.4 26.5,5.6 L26.5,8.1 C26.7,8.6 26.5,9 25.7,9 Z" id="Path"></path>
                        <path d="M32.4,6.6 C31.8,6.6 30.8,6.5 30.6,6.5 C30.4,6.5 29.3,6.4 29.3,7.2 C29.3,7.8 30,8.1 30.5,8.1 C31.4,8.1 31.7,7.4 32.4,7.4 C32.8,7.4 33,7.6 33,7.9 C33,9.1 31.3,9.2 30.5,9.2 C28.6,9.2 27.3,8.2 27.3,6.1 C27.3,4.3 28.6,3 30.5,3 C32.7,3 33.6,4.6 33.6,5.6 C33.6,6.4 32.9,6.6 32.4,6.6 Z M30.5,4.2 C30,4.2 29.5,4.5 29.5,5 C29.5,5.5 30.2,5.6 30.5,5.6 C30.8,5.6 31.5,5.6 31.5,5 C31.5,4.5 31,4.2 30.5,4.2 Z" id="Shape"></path>
                    </g>
                </g>
            </g>
        </g>
    </g>
</svg>