<?xml version="1.0" encoding="utf-8"?>
<!-- Generator: Adobe Illustrator 17.1.0, SVG Export Plug-In . SVG Version: 6.00 Build 0)  -->
<!DOCTYPE svg PUBLIC "-//W3C//DTD SVG 1.1//EN" "http://www.w3.org/Graphics/SVG/1.1/DTD/svg11.dtd">
<svg version="1.1" id="Layer_1" xmlns="http://www.w3.org/2000/svg" xmlns:xlink="http://www.w3.org/1999/xlink" x="0px" y="0px"
	 viewBox="0 0 110 20" enable-background="new 0 0 110 20" xml:space="preserve">
<polygon fill="#A6A6A6" points="10.8,0.3 13.9,6.7 21,7.7 15.9,12.6 17.1,19.7 10.8,16.4 4.5,19.7 5.7,12.6 0.6,7.7 7.7,6.7 "/>
<polygon fill="#A6A6A6" points="33,0.3 36.1,6.7 43.2,7.7 38.1,12.6 39.3,19.7 33,16.4 26.7,19.7 27.9,12.6 22.8,7.7 29.9,6.7 "/>
<polygon fill="#A6A6A6" points="55.2,0.3 58.3,6.7 65.4,7.7 60.3,12.6 61.5,19.7 55.2,16.4 48.9,19.7 50.1,12.6 45,7.7 52.1,6.7 "/>
<polygon fill="#A6A6A6" points="77.5,0.3 80.6,6.7 87.7,7.7 82.6,12.6 83.9,19.7 77.5,16.4 71.2,19.7 72.5,12.6 67.3,7.7 74.4,6.7 
	"/>
<polygon fill="#A6A6A6" points="99.2,0.3 102.3,6.7 109.4,7.7 104.3,12.6 105.6,19.7 99.2,16.4 92.9,19.7 94.2,12.6 89,7.7 
	96.1,6.7 "/>
</svg>
