<?xml version="1.0" encoding="utf-8"?>
<!-- Generator: Adobe Illustrator 17.1.0, SVG Export Plug-In . SVG Version: 6.00 Build 0)  -->
<!DOCTYPE svg PUBLIC "-//W3C//DTD SVG 1.1//EN" "http://www.w3.org/Graphics/SVG/1.1/DTD/svg11.dtd">
<svg version="1.1" id="Layer_1" xmlns="http://www.w3.org/2000/svg" xmlns:xlink="http://www.w3.org/1999/xlink" x="0px" y="0px"
	 viewBox="0 0 110 20" enable-background="new 0 0 110 20" xml:space="preserve">
<g>
	<polygon fill="#FFA400" points="10.7,16.7 4,20.2 5.3,12.7 -0.1,7.5 7.4,6.5 10.7,-0.3 13.9,6.5 21.4,7.5 16,12.7 17.3,20.2 	"/>
	<path fill="#FFFFFF" d="M10.7,0.3l3.1,6.4l7.1,1l-5.1,4.9l1.2,7.1l-6.3-3.3l-6.3,3.3l1.2-7.1L0.4,7.7l7.1-1L10.7,0.3 M10.7-0.9
		l-0.4,0.9l-3,6.2l-6.9,1l-1,0.1l0.7,0.7L5,12.8l-1.2,6.9l-0.2,1l0.9-0.5l6.1-3.2l6.1,3.2l0.9,0.5l-0.2-1l-1.2-6.9l4.9-4.7L22,7.3
		l-1-0.1l-6.9-1l-3-6.2L10.7-0.9L10.7-0.9z"/>
</g>
<g>
	<polygon fill="#FFA400" points="32.9,16.7 26.3,20.2 27.5,12.7 22.2,7.5 29.7,6.5 32.9,-0.3 36.2,6.5 43.7,7.5 38.3,12.7 
		39.6,20.2 	"/>
	<path fill="#FFFFFF" d="M32.9,0.3L36,6.7l7.1,1L38,12.6l1.2,7.1l-6.3-3.3l-6.3,3.3l1.2-7.1l-5.1-4.9l7.1-1L32.9,0.3 M32.9-0.9
		l-0.4,0.9l-3,6.2l-6.9,1l-1,0.1l0.7,0.7l4.9,4.7l-1.2,6.9l-0.2,1l0.9-0.5l6.1-3.2l6.1,3.2l0.9,0.5l-0.2-1l-1.2-6.9l4.9-4.7l0.7-0.7
		l-1-0.1l-6.9-1l-3-6.2L32.9-0.9L32.9-0.9z"/>
</g>
<g>
	<polygon fill="#FFA400" points="49.8,12.7 44.4,7.5 51.9,6.5 55.2,-0.3 58.5,6.5 66,7.5 60.6,12.7 61.9,20.2 55.2,16.7 48.6,20.2 	
		"/>
	<path fill="#FFFFFF" d="M55.2,0.3l3.1,6.4l7.1,1l-5.1,4.9l1.2,7.1l-6.3-3.3l-6.3,3.3l1.2-7.1L45,7.7l7.1-1L55.2,0.3 M55.2-0.9
		l-0.4,0.9l-3,6.2l-6.9,1l-1,0.1l0.7,0.7l4.9,4.7l-1.2,6.9l-0.2,1l0.9-0.5l6.1-3.2l6.1,3.2l0.9,0.5l-0.2-1l-1.2-6.9l4.9-4.7l0.7-0.7
		l-1-0.1l-6.9-1l-3-6.2L55.2-0.9L55.2-0.9z"/>
</g>
<g>
	<polygon fill="#FFA400" points="72.3,12.7 66.8,7.5 74.3,6.5 77.6,-0.3 80.8,6.5 88.3,7.5 83,12.7 84.3,20.2 77.6,16.7 70.9,20.2 	
		"/>
	<path fill="#FFFFFF" d="M77.6,0.3l3.1,6.4l7.1,1l-5.1,4.9l1.3,7.1l-6.4-3.3l-6.3,3.3l1.3-7.1l-5.2-4.9l7.1-1L77.6,0.3 M77.6-0.9
		l-0.4,0.9l-3,6.2l-6.9,1l-1,0.1L67,8.1l5,4.7l-1.3,6.9l-0.2,1l0.9-0.5l6.1-3.2l6.2,3.2l0.9,0.5l-0.2-1l-1.3-6.9l4.9-4.7l0.7-0.7
		l-1-0.1l-6.9-1l-3-6.2L77.6-0.9L77.6-0.9z"/>
</g>
<g>
	<polygon fill="#FFA400" points="94.1,12.7 88.6,7.5 96.1,6.5 99.3,-0.3 102.6,6.5 110.1,7.5 104.7,12.7 106.1,20.2 99.3,16.7 
		92.7,20.2 	"/>
	<path fill="#FFFFFF" d="M99.3,0.3l3.1,6.4l7.1,1l-5.1,4.9l1.3,7.1l-6.4-3.3L93,19.7l1.3-7.1l-5.2-4.9l7.1-1L99.3,0.3 M99.3-0.9
		l-0.4,0.9l-3,6.2l-6.9,1l-1,0.1l0.8,0.7l5,4.7l-1.3,6.9l-0.2,1l0.9-0.5l6.1-3.2l6.2,3.2l0.9,0.5l-0.2-1l-1.3-6.9l4.9-4.7l0.7-0.7
		l-1-0.1l-6.9-1l-3-6.2L99.3-0.9L99.3-0.9z"/>
</g>
</svg>
